<svg width="45" height="40" viewBox="0 0 45 40" fill="none" xmlns="http://www.w3.org/2000/svg">
<path d="M31.5698 17.7906C30.7845 22.4106 35.3307 32.1184 30.0346 33.9613C24.7385 35.8042 22.3904 38.9589 20.8479 32.3858C20.1276 29.3162 19.8058 23.576 20.8479 20.9302C24.0116 20.6395 25.7383 18.1556 27.6445 17.1475C32.0349 14.8255 32.3256 17.1475 31.5698 17.7906Z" fill="#EC9630"/>
<path d="M16.0466 14.593C15.4652 9.36039 7.38377 18.7209 11.1047 25.1743L11.4535 33.372L31.8024 34.9418L31.8589 34.7126C34.4869 24.0542 37.1198 13.3755 30.814 18.372C22.8752 24.6624 16.6116 19.6779 16.0466 14.593Z" fill="#EFBC3A"/>
<path d="M32.9651 25.2223C31.7182 19.8204 31.3235 28.2063 23.6628 25.1295C15.5814 19.8837 11.2754 15.545 10.4965 25.2223C10.4965 32.6744 14.4768 36.5334 23.0196 36.5334C37.093 34.4768 33.721 30.9884 32.9651 25.2223Z" fill="#EC9630"/>
<path fill-rule="evenodd" clip-rule="evenodd" d="M14.2751 0C11.961 0 9.8227 1.23455 8.66566 3.23859L0.867778 16.7449C-0.28926 18.749 -0.289259 21.2181 0.867779 23.2221L8.66566 36.7284C9.8227 38.7325 11.961 39.967 14.2751 39.967H29.8708C32.1849 39.967 34.3232 38.7325 35.4803 36.7284L43.2781 23.2221C44.4352 21.2181 44.4352 18.749 43.2781 16.7449L35.4803 3.23859C34.3232 1.23455 32.1849 0 29.8708 0H14.2751ZM31.5116 31.0465V8.7209H26.3581V17.2259H17.828V8.7209H12.6744V31.0465H17.828V22.1871H26.3581V31.0465H31.5116Z" fill="white"/>
</svg>
