<svg width="115" height="20" viewBox="0 0 115 20" fill="none" xmlns="http://www.w3.org/2000/svg">
<path d="M16.4401 0.147823V19.6898H11.9423V11.9351H4.49776V19.6898H0V0.147823H4.49776V7.59239H11.9423V0.147823H16.4401Z" fill="white"/>
<path d="M19.2439 12.5554C19.2439 11.5008 19.43 10.5289 19.8023 9.63964C20.1952 8.72975 20.7225 7.94394 21.3842 7.2822C22.046 6.59978 22.8111 6.07246 23.6796 5.70023C24.5688 5.30732 25.5201 5.11087 26.5334 5.11087C27.5467 5.11087 28.4876 5.30732 29.3561 5.70023C30.2453 6.07246 31.0208 6.59978 31.6825 7.2822C32.3443 7.94394 32.8613 8.72975 33.2335 9.63964C33.6264 10.5289 33.8228 11.5008 33.8228 12.5554C33.8228 13.6101 33.6264 14.5923 33.2335 15.5022C32.8613 16.3915 32.3443 17.1773 31.6825 17.8597C31.0208 18.5214 30.2453 19.0487 29.3561 19.4417C28.4876 19.8139 27.5467 20 26.5334 20C25.5201 20 24.5688 19.8139 23.6796 19.4417C22.8111 19.0487 22.046 18.5214 21.3842 17.8597C20.7225 17.1773 20.1952 16.3915 19.8023 15.5022C19.43 14.5923 19.2439 13.6101 19.2439 12.5554ZM29.6353 12.5554C29.6353 11.4594 29.3354 10.5909 28.7357 9.94984C28.136 9.30878 27.4019 8.98825 26.5334 8.98825C25.6648 8.98825 24.9307 9.30878 24.331 9.94984C23.7313 10.5909 23.4315 11.4594 23.4315 12.5554C23.4315 13.6514 23.7313 14.52 24.331 15.161C24.9307 15.8021 25.6648 16.1226 26.5334 16.1226C27.4019 16.1226 28.136 15.8021 28.7357 15.161C29.3354 14.52 29.6353 13.6514 29.6353 12.5554Z" fill="white"/>
<path d="M37.5536 9.29844H35.3823V5.73125H36.4679C37.6053 5.73125 38.174 5.16257 38.174 4.0252V2.00896H41.7412V5.42106H44.688V9.29844H41.7412V13.9513C41.7412 14.5717 41.917 15.068 42.2685 15.4402C42.6201 15.7918 43.0647 15.9675 43.6023 15.9675C43.7678 15.9675 43.9125 15.9675 44.0366 15.9675C44.1607 15.9468 44.2744 15.9262 44.3778 15.9055C44.4812 15.8848 44.5846 15.8538 44.688 15.8124V19.5347C44.5226 19.5968 44.3364 19.6484 44.1296 19.6898C43.7161 19.7932 43.2301 19.8449 42.6718 19.8449C41.0381 19.8449 39.7766 19.4003 38.8874 18.5111C37.9982 17.6012 37.5536 16.2881 37.5536 14.5717V9.29844Z" fill="white"/>
<path d="M49.9739 4.95274C49.9739 4.28632 50.1103 3.65524 50.3829 3.05949C50.6656 2.46375 51.0695 1.93869 51.5946 1.48431C52.1196 1.02993 52.7558 0.671473 53.503 0.408942C54.2502 0.136314 55.0882 0 56.0172 0C56.825 0 57.5772 0.146411 58.274 0.439234C58.9808 0.72196 59.5967 1.11071 60.1218 1.60548C60.6569 2.10025 61.076 2.67579 61.3789 3.33212C61.6919 3.97835 61.8686 4.67507 61.909 5.42227H60.3641C60.2833 4.26108 59.8491 3.30183 59.0615 2.54453C58.274 1.77713 57.2592 1.39343 56.0172 1.39343C55.3104 1.39343 54.6793 1.49441 54.124 1.69635C53.5686 1.8882 53.0991 2.15073 52.7154 2.48395C52.3317 2.80706 52.0338 3.18571 51.8218 3.6199C51.6198 4.05408 51.5188 4.49836 51.5188 4.95274C51.5188 5.84131 51.7814 6.53298 52.3064 7.02775C52.8315 7.51242 53.4929 7.91126 54.2906 8.22428C55.0882 8.5272 55.9465 8.79983 56.8654 9.04217C57.7842 9.2744 58.6425 9.59752 59.4402 10.0115C60.2379 10.4255 60.8993 10.9708 61.4243 11.6473C61.9595 12.3137 62.2271 13.2376 62.2271 14.419C62.2271 15.2066 62.0857 15.9336 61.803 16.6C61.5202 17.2563 61.1113 17.8218 60.5761 18.2964C60.041 18.771 59.3897 19.1496 58.6223 19.4323C57.8549 19.705 56.9865 19.8413 56.0172 19.8413C55.0479 19.8413 54.1795 19.705 53.4121 19.4323C52.6447 19.1496 51.9884 18.7609 51.4431 18.2661C50.8979 17.7713 50.4738 17.1806 50.1708 16.494C49.8679 15.8074 49.6963 15.0652 49.6559 14.2675H51.2159C51.3775 15.5095 51.8672 16.5192 52.6851 17.2967C53.503 18.0641 54.6137 18.4478 56.0172 18.4478C57.5015 18.4478 58.6476 18.0742 59.4553 17.327C60.2631 16.5697 60.667 15.6004 60.667 14.419C60.667 13.49 60.4045 12.763 59.8794 12.238C59.3544 11.7028 58.693 11.2737 57.8953 10.9506C57.0976 10.6174 56.2393 10.3346 55.3205 10.1024C54.4016 9.86005 53.5434 9.54198 52.7457 9.14819C51.948 8.75439 51.2866 8.23943 50.7615 7.6033C50.2365 6.95707 49.9739 6.07355 49.9739 4.95274Z" fill="white"/>
<path d="M77.2731 19.6898H75.4101L68.5944 12.556V19.6898H67.1859V0.15146H68.5944V12.556L74.7892 6.04326H76.6521L70.4423 12.556L77.2731 19.6898Z" fill="white"/>
<path d="M82.5348 19.6898H81.1414V6.04326H82.5348V19.6898ZM80.8233 1.69635C80.8233 1.38334 80.9243 1.12585 81.1263 0.923906C81.3383 0.711862 81.6008 0.60584 81.9138 0.60584C82.2269 0.60584 82.4843 0.711862 82.6863 0.923906C82.8882 1.12585 82.9892 1.38334 82.9892 1.69635C82.9892 2.00937 82.8882 2.2719 82.6863 2.48395C82.4843 2.68589 82.2269 2.78687 81.9138 2.78687C81.6008 2.78687 81.3383 2.68589 81.1263 2.48395C80.9243 2.2719 80.8233 2.00937 80.8233 1.69635Z" fill="white"/>
<path d="M94.6274 5.8918C95.3948 5.8918 96.1117 6.03316 96.7781 6.31588C97.4547 6.58851 98.0302 6.97726 98.5048 7.48213C98.9895 7.98699 99.3681 8.59283 99.6407 9.29965C99.9235 10.0065 100.065 10.784 100.065 11.6321V19.6898H98.6714V11.6321C98.6714 11.0162 98.5603 10.4457 98.3382 9.92063C98.1261 9.38548 97.8283 8.921 97.4446 8.5272C97.0609 8.13341 96.6166 7.83049 96.1117 7.61844C95.6068 7.3963 95.0616 7.28523 94.4759 7.28523C93.86 7.28523 93.2845 7.3963 92.7493 7.61844C92.2242 7.83049 91.7648 8.13341 91.371 8.5272C90.9873 8.921 90.6844 9.38043 90.4622 9.90549C90.2502 10.4305 90.1442 11.0061 90.1442 11.6321V19.6898H88.7356V6.04326H89.6747L90.1442 8.05768H90.2956C90.5481 7.66388 90.8762 7.30037 91.2801 6.96716C91.6335 6.69453 92.0829 6.44715 92.6281 6.22501C93.1734 6.00287 93.8398 5.8918 94.6274 5.8918Z" fill="white"/>
<path d="M114.641 15.8124C114.641 16.3476 114.525 16.8626 114.293 17.3573C114.071 17.842 113.758 18.2711 113.354 18.6447C112.95 19.0082 112.46 19.3011 111.885 19.5232C111.319 19.7352 110.688 19.8413 109.992 19.8413C109.244 19.8413 108.573 19.7352 107.977 19.5232C107.391 19.3011 106.887 18.9981 106.462 18.6144C106.038 18.2307 105.7 17.7865 105.448 17.2816C105.205 16.7767 105.064 16.2365 105.024 15.661H106.417C106.579 16.5293 106.937 17.2109 107.492 17.7057C108.058 18.2005 108.891 18.4478 109.992 18.4478C111.001 18.4478 111.794 18.1853 112.369 17.6602C112.955 17.1352 113.248 16.5192 113.248 15.8124C113.248 15.1965 113.051 14.7219 112.657 14.3887C112.263 14.0555 111.774 13.8031 111.188 13.6314C110.612 13.4497 109.976 13.2931 109.28 13.1619C108.593 13.0306 107.957 12.8388 107.371 12.5863C106.796 12.3339 106.311 11.9805 105.917 11.5261C105.534 11.0717 105.342 10.4305 105.342 9.60257C105.342 9.1078 105.443 8.63322 105.645 8.17884C105.857 7.72446 106.149 7.33067 106.523 6.99746C106.907 6.65415 107.376 6.38657 107.932 6.19472C108.497 5.99277 109.133 5.8918 109.84 5.8918C110.506 5.8918 111.112 6.00287 111.658 6.22501C112.203 6.43705 112.682 6.71978 113.096 7.07318C113.51 7.41649 113.834 7.82544 114.066 8.30001C114.308 8.77459 114.449 9.26431 114.49 9.76917H113.096C112.935 9.06236 112.581 8.47167 112.036 7.99709C111.501 7.52252 110.769 7.28523 109.84 7.28523C108.83 7.28523 108.058 7.51747 107.523 7.98195C106.998 8.44642 106.735 8.98663 106.735 9.60257C106.735 10.1983 106.932 10.6476 107.326 10.9506C107.72 11.2535 108.204 11.4908 108.78 11.6624C109.355 11.824 109.992 11.9754 110.688 12.1168C111.385 12.2481 112.021 12.445 112.597 12.7075C113.172 12.9599 113.657 13.3234 114.051 13.798C114.444 14.2726 114.641 14.9441 114.641 15.8124Z" fill="white"/>
</svg>
