<svg width="45" height="40" viewBox="0 0 45 40" fill="none" xmlns="http://www.w3.org/2000/svg">
<path fill-rule="evenodd" clip-rule="evenodd" d="M14.2751 0C11.961 0 9.8227 1.23455 8.66566 3.23859L0.867779 16.7449C-0.28926 18.749 -0.289259 21.2181 0.867779 23.2221L8.66566 36.7284C9.8227 38.7325 11.961 39.967 14.2751 39.967H29.8708C32.1849 39.967 34.3232 38.7325 35.4803 36.7284L43.2781 23.2221C44.4352 21.2181 44.4352 18.749 43.2781 16.7449L35.4803 3.23859C34.3232 1.23455 32.1849 0 29.8708 0H14.2751ZM14.6224 12.64C14.2742 13.3849 14.1001 14.1763 14.1001 15.0143C14.1001 16.3178 14.3671 17.3769 14.901 18.1917C15.435 19.0064 16.0966 19.6698 16.886 20.1819C17.6985 20.6707 18.5691 21.0548 19.4977 21.3341C20.4264 21.6134 21.2854 21.8811 22.0747 22.1372C22.8872 22.3932 23.5605 22.6725 24.0945 22.9752C24.6284 23.2778 24.8954 23.7084 24.8954 24.267C24.8954 24.8723 24.64 25.4076 24.1293 25.8732C23.6417 26.3155 22.9105 26.5366 21.9354 26.5366C19.846 26.5366 18.8013 25.5473 18.8013 23.5687L13.926 23.9179C13.926 24.9654 14.1001 25.9314 14.4483 26.8159C14.8198 27.6772 15.3421 28.4337 16.0154 29.0855C16.7119 29.714 17.5592 30.2028 18.5575 30.5519C19.5558 30.9011 20.6817 31.0757 21.9354 31.0757C23.2355 31.0757 24.3963 30.9011 25.4177 30.5519C26.4392 30.2028 27.2982 29.7372 27.9947 29.1553C28.6912 28.5734 29.2135 27.8983 29.5618 27.1302C29.9332 26.3387 30.1189 25.5008 30.1189 24.6162C30.1189 23.2894 29.852 22.207 29.318 21.369C28.784 20.531 28.1108 19.856 27.2982 19.3439C26.5089 18.8318 25.6499 18.4361 24.7213 18.1567C23.7927 17.8774 22.9221 17.6214 22.1095 17.3886C21.3202 17.1325 20.6585 16.8648 20.1246 16.5855C19.5906 16.3062 19.3236 15.8988 19.3236 15.3635C19.3236 14.8281 19.5558 14.3509 20.0201 13.9319C20.5076 13.4896 21.1461 13.2685 21.9354 13.2685C22.8176 13.2685 23.5025 13.5129 23.99 14.0017C24.4775 14.4905 24.7213 15.1772 24.7213 16.0618L29.5966 15.7126C29.5966 14.7117 29.4109 13.7922 29.0394 12.9542C28.6912 12.093 28.1804 11.3481 27.5072 10.7196C26.8571 10.0911 26.0562 9.6023 25.1043 9.25314C24.1757 8.90398 23.1194 8.72939 21.9354 8.72939C20.705 8.72939 19.6022 8.90398 18.6272 9.25314C17.6753 9.6023 16.8628 10.0678 16.1895 10.6498C15.5162 11.2084 14.9939 11.8718 14.6224 12.64Z" fill="white"/>
</svg>
