<svg width="20" height="20" viewBox="0 0 20 20" fill="none" xmlns="http://www.w3.org/2000/svg">
<g clip-path="url(#clip0_17567_12418)">
<path fill-rule="evenodd" clip-rule="evenodd" d="M4.34317 4.34316C2.56642 6.11991 1.79962 8.52332 2.04442 10.8445C2.10235 11.3938 1.70406 11.886 1.15482 11.9439C0.60558 12.0018 0.113378 11.6035 0.0554543 11.0543C-0.249936 8.15855 0.707351 5.15055 2.92896 2.92895C6.8342 -0.976296 13.1659 -0.976296 17.0711 2.92895C17.4974 3.3552 17.8776 3.81102 18.2114 4.29008C18.5272 4.74318 18.4159 5.36648 17.9628 5.68226C17.5097 5.99804 16.8864 5.88671 16.5706 5.43361C16.3039 5.05085 15.9994 4.68567 15.6569 4.34316C12.5327 1.21897 7.46737 1.21897 4.34317 4.34316Z" fill="#F4C038"/>
<path fill-rule="evenodd" clip-rule="evenodd" d="M19 6V1C19 0.447715 18.5523 0 18 0C17.4477 -1.68587e-07 17 0.447715 17 1L17 4H14C13.4477 4 13 4.44772 13 5C13 5.55228 13.4477 6 14 6H19Z" fill="#F4C038"/>
<g opacity="0.5">
<path fill-rule="evenodd" clip-rule="evenodd" d="M15.6569 15.6064C17.4336 13.8296 18.2004 11.4262 17.9556 9.10498C17.8977 8.55574 18.296 8.06354 18.8452 8.00562C19.3945 7.94769 19.8867 8.34598 19.9446 8.89522C20.25 11.791 19.2927 14.799 17.0711 17.0206C13.1659 20.9258 6.83421 20.9258 2.92897 17.0206C2.50271 16.5943 2.12248 16.1385 1.78862 15.6594C1.47285 15.2063 1.58417 14.583 2.03728 14.2673C2.49038 13.9515 3.11368 14.0628 3.42946 14.5159C3.69621 14.8987 4.00067 15.2639 4.34318 15.6064C7.46737 18.7306 12.5327 18.7306 15.6569 15.6064Z" fill="#F4C038"/>
<path fill-rule="evenodd" clip-rule="evenodd" d="M1.00007 13.9495V18.9495C1.00007 19.5018 1.44778 19.9495 2.00007 19.9495C2.55235 19.9495 3.00006 19.5018 3.00006 18.9495L3.00007 15.9495H6.00007C6.55235 15.9495 7.00007 15.5018 7.00007 14.9495C7.00007 14.3972 6.55235 13.9495 6.00007 13.9495H1.00007Z" fill="#F4C038"/>
</g>
</g>
<defs>
<clipPath id="clip0_17567_12418">
<rect width="20" height="20" fill="white"/>
</clipPath>
</defs>
</svg>
