<svg width="20" height="20" viewBox="0 0 20 20" fill="none" xmlns="http://www.w3.org/2000/svg">
<path fill-rule="evenodd" clip-rule="evenodd" d="M10 18C14.4183 18 18 14.4183 18 10C18 5.58172 14.4183 2 10 2C5.58172 2 2 5.58172 2 10C2 14.4183 5.58172 18 10 18ZM10 20C15.5228 20 20 15.5228 20 10C20 4.47715 15.5228 0 10 0C4.47715 0 0 4.47715 0 10C0 15.5228 4.47715 20 10 20Z" fill="#F4C038"/>
<g opacity="0.5">
<path fill-rule="evenodd" clip-rule="evenodd" d="M10 6C8.89543 6 8 6.89543 8 8C8 8.55228 7.55228 9 7 9C6.44772 9 6 8.55228 6 8C6 5.79086 7.79086 4 10 4C12.2091 4 14 5.79086 14 8C14 8.88351 13.7486 9.5781 13.3113 10.1232C12.8996 10.6363 12.3746 10.9475 11.9867 11.1636C11.9028 11.2103 11.8267 11.2522 11.7573 11.2904C11.4544 11.457 11.2787 11.5536 11.1388 11.6799C11.0408 11.7684 11 11.8318 11 12C11 12.5523 10.5523 13 10 13C9.44772 13 9 12.5523 9 12C9 11.1973 9.33423 10.6146 9.79866 10.1953C10.1302 9.89603 10.5578 9.66413 10.8631 9.49856C10.9175 9.4691 10.9679 9.44173 11.0133 9.41646C11.3754 9.2147 11.6004 9.05971 11.7512 8.87165C11.8764 8.7156 12 8.47411 12 8C12 6.89543 11.1046 6 10 6Z" fill="#F4C038"/>
<path d="M11 15C11 15.5523 10.5523 16 10 16C9.44772 16 9 15.5523 9 15C9 14.4477 9.44772 14 10 14C10.5523 14 11 14.4477 11 15Z" fill="#F4C038"/>
</g>
</svg>
